<svg enable-background="new 0 0 128 128" viewBox="0 0 128 128" xmlns="http://www.w3.org/2000/svg" xmlns:xlink="http://www.w3.org/1999/xlink"><linearGradient id="a"><stop offset=".0051299" stop-color="#eee"/><stop offset=".2817" stop-color="#eaeaea"/><stop offset=".5766" stop-color="#ddd"/><stop offset=".8789" stop-color="#c8c8c8"/><stop offset=".9998" stop-color="#bdbdbd"/></linearGradient><linearGradient id="b" gradientUnits="userSpaceOnUse" x1="56.126" x2="56.126" xlink:href="#a" y1="34.818" y2="123.07"/><linearGradient id="c" gradientUnits="userSpaceOnUse" x1="56.08" x2="56.08" y1="38.92" y2="121.07"><stop offset="0" stop-color="#ffb300"/><stop offset="1" stop-color="#ffea00"/></linearGradient><linearGradient id="d" gradientUnits="userSpaceOnUse" x1="103.92" x2="103.92" xlink:href="#a" y1="41.895" y2="103.19"/><linearGradient id="e" gradientUnits="userSpaceOnUse" x1="12" x2="97" y1="32.5" y2="32.5"><stop offset=".0051299" stop-color="#eee"/><stop offset=".4883" stop-color="#f2f2f2"/><stop offset="1" stop-color="#fff"/></linearGradient><path d="m86.43 34.5h-60.71l-4.93-.01 1.2 72.55c0 12.19 21.45 16.74 34.51 16.74s34.08-4.67 34.08-16.86l.88-72.43z" fill="url(#b)"/><path d="m23.83 37.49 1.88.01h60.72 2l-.85 69.42c0 5.13-5.57 8.39-10.24 10.21-6.89 2.69-15.29 3.65-20.85 3.65-5.62 0-14.11-.95-21.09-3.6-4.76-1.81-10.42-5.04-10.42-10.19zm-3.05-3 1.2 72.55c0 12.19 21.45 16.74 34.51 16.74s34.08-4.67 34.08-16.86l.88-72.43-5.04.01h-60.69l-4.94-.01z" fill="#424242" opacity=".2"/><path d="m84.3 36-.33 66.23c-.27 2.27-2.13 4.46-4.67 5.62-4.55 2.09-13.44 4.14-23.28 4.14-9.4 0-17.4-1.87-22.04-3.84-2.94-1.24-5.31-3.74-5.67-5.89l-.45-66.26z" fill="url(#c)"/><g fill="#e4a324"><circle cx="40.22" cy="101.92" r="1.35"/><circle cx="37.23" cy="98.21" r=".93"/><circle cx="43.2" cy="96.48" r="1.63"/><circle cx="37.53" cy="94.8" r="1.68"/><circle cx="42.91" cy="87.61" r="1.35"/><circle cx="39.36" cy="88.26" r="1.2"/><circle cx="34.27" cy="80.53" r="1.2"/><circle cx="45.78" cy="73.4" r="1.52"/><circle cx="38.16" cy="84.41" r="1.86"/><circle cx="43.01" cy="78.71" r="1.82"/><circle cx="36.81" cy="76.49" r="1.35"/></g><path d="m87.91 75.83-.24 26.34 2.92 3.33s2.94-2.44 13.67-4.98c12.33-2.92 15.21-7.76 15.86-29.04.75-24.4-5.77-26.7-13.12-27.98-8.58-1.49-12.45-6.23-12.45-6.23l-6.36 4.35zm8.59-4.85c0-8.13 0-14.72 6.23-14.72s6.23 6.59 6.23 14.72 0 14.72-6.23 14.72c-5.85-.01-6.23-6.6-6.23-14.72z" fill="url(#d)"/><path d="m94.26 41.11c2.2 1.78 6.21 4.3 12.23 5.35 3.74.65 5.93 1.44 7.59 3.99 2.37 3.65 3.36 10.5 3.04 20.94-.64 20.9-3.31 23.79-13.55 26.22-6.34 1.5-10.16 2.99-12.35 4.06l-.54-.61.23-25.2.27-32.64zm8.47 47.58c2.94 0 6.77-1.12 8.33-6.47.9-3.08.9-7.05.9-11.25s0-8.17-.9-11.25c-1.56-5.35-5.39-6.47-8.33-6.47s-6.77 1.12-8.33 6.47c-.9 3.08-.9 7.05-.9 11.25 0 7.06 0 17.72 9.23 17.72m-8.18-51.42-6.36 4.35-.28 34.21-.24 26.34 2.92 3.33s2.94-2.44 13.67-4.98c12.33-2.92 15.21-7.76 15.86-29.04.75-24.4-5.77-26.7-13.12-27.98-8.58-1.49-12.45-6.23-12.45-6.23zm8.18 48.42c-5.85 0-6.23-6.59-6.23-14.72s0-14.72 6.23-14.72 6.23 6.59 6.23 14.72 0 14.72-6.23 14.72z" fill="#424242" opacity=".2"/><path d="m74.85 98.22c-2.39.31-4.51-1.55-4.51-3.96v-36.1c0-2.02 1.51-3.73 3.52-3.97 2.38-.28 4.47 1.57 4.47 3.97v36.1c0 2.01-1.49 3.7-3.48 3.96z" fill="#fff" fill-opacity=".72" opacity=".51"/><path d="m60.85 103.22c-2.39.31-4.51-1.55-4.51-3.96v-36.1c0-2.02 1.51-3.73 3.52-3.97 2.38-.28 4.47 1.57 4.47 3.97v36.1c0 2.01-1.49 3.7-3.48 3.96z" fill="#fff" fill-opacity=".72" opacity=".51"/><path d="m95.94 29.29c-.52-1.09-.62-2.32-.3-3.49.28-1.04.41-2.15.36-3.29-.23-5.27-4.34-9.74-9.57-10.42-.66-.09-1.31-.11-1.95-.08-1.57.08-3.16-.36-4.36-1.38-1.92-1.64-4.4-2.63-7.12-2.63-.81 0-1.59.09-2.35.26-2.69-2.04-6.02-3.26-9.65-3.26-4.19 0-7.99 1.62-10.84 4.26-2.39-1.43-5.18-2.26-8.16-2.26-6.37 0-11.86 3.73-14.43 9.12-.51-.07-1.04-.12-1.57-.12-6.08 0-11 4.92-11 11 0 .41.03.81.07 1.21-2.18 1.48-3.48 4.16-2.95 7.09.5 2.81 2.78 5.08 5.59 5.59.92.17 2.01.22 2.91-.08 2.38-.81 2.38-1.81 2.38-1.81 0 2.62.89 5.09 3.36 6.34.93.47 1.97.73 2.84 1.29 3.87 2.49 1.47 13.37 11.55 13.37 6.74 0 8.25-5.31 8.68-8.85.24-1.96 1.01-3.89 1.88-5.86.36-.81 1.38-1.03 2.11-.48 2.75 2.06 6.14 3.19 9.58 3.19 4.06 0 7.75-1.51 10.57-4 1.85-1.63 4.51-1.98 6.6-.67 2.04 1.28 4.52 1.91 7.17 1.6 4.8-.57 8.74-4.33 9.51-9.1.38-2.37.01-4.61-.91-6.54z" fill="url(#e)"/><path d="m61 8c2.84 0 5.55.92 7.84 2.65.53.4 1.16.61 1.81.61.21 0 .43-.02.64-.07.57-.13 1.15-.19 1.71-.19 1.89 0 3.73.68 5.17 1.91 1.59 1.36 3.71 2.11 5.96 2.11.16 0 .33 0 .49-.01.13-.01.25-.01.38-.01.34 0 .69.02 1.04.07 3.8.49 6.79 3.75 6.96 7.58.04.8-.05 1.61-.26 2.38-.5 1.87-.32 3.84.5 5.56.7 1.47.93 3.11.66 4.75-.55 3.42-3.46 6.19-6.9 6.6-.34.04-.67.06-1 .06-1.51 0-2.97-.42-4.24-1.22-1.31-.82-2.83-1.26-4.39-1.26-2.11 0-4.17.79-5.79 2.23-2.37 2.1-5.42 3.25-8.58 3.25-2.79 0-5.55-.92-7.77-2.59-.78-.59-1.73-.91-2.7-.91-1.71 0-3.27 1.01-3.96 2.56-.93 2.09-1.83 4.34-2.12 6.72-.67 5.48-3.26 6.22-5.7 6.22-4.04 0-4.86-2.13-6.07-6.21-.76-2.55-1.54-5.19-3.86-6.68-.77-.49-1.53-.79-2.19-1.06-.34-.13-.66-.26-.92-.39-.42-.21-1.71-.86-1.71-3.66 0-1.66-1.34-3-3-3-1.19 0-2.22.69-2.7 1.7-.13.07-.34.16-.64.26-.04.01-.2.06-.52.06-.26 0-.58-.03-.9-.09-1.58-.28-2.88-1.58-3.16-3.16-.35-1.93.65-3.37 1.69-4.08.92-.62 1.42-1.7 1.3-2.81-.05-.32-.07-.6-.07-.88 0-4.41 3.59-8 8-8 .33 0 .69.03 1.14.09.14.02.29.03.43.03 1.14 0 2.2-.65 2.71-1.71 2.15-4.5 6.75-7.41 11.72-7.41 2.32 0 4.61.63 6.63 1.83.48.28 1.01.42 1.53.42.74 0 1.47-.27 2.04-.8 2.41-2.22 5.54-3.45 8.8-3.45m0-3c-4.19 0-7.99 1.62-10.84 4.26-2.39-1.43-5.18-2.26-8.16-2.26-6.37 0-11.86 3.73-14.43 9.12-.51-.07-1.04-.12-1.57-.12-6.08 0-11 4.92-11 11 0 .41.03.81.07 1.21-2.18 1.48-3.48 4.16-2.95 7.09.5 2.81 2.78 5.08 5.59 5.59.45.08.94.14 1.43.14.51 0 1.02-.06 1.48-.22 2.38-.81 2.38-1.81 2.38-1.81 0 2.62.89 5.09 3.36 6.34.93.47 1.97.73 2.84 1.29 3.87 2.49 1.47 13.37 11.55 13.37 6.74 0 8.25-5.31 8.68-8.85.24-1.96 1.01-3.89 1.88-5.86.23-.51.71-.78 1.22-.78.3 0 .62.1.89.3 2.75 2.06 6.14 3.19 9.58 3.19 4.06 0 7.75-1.51 10.57-4 1.08-.96 2.44-1.47 3.81-1.47.96 0 1.93.26 2.79.8 1.69 1.06 3.69 1.67 5.83 1.67.44 0 .89-.03 1.34-.08 4.8-.57 8.74-4.33 9.51-9.1.38-2.36 0-4.59-.92-6.52-.52-1.09-.62-2.32-.3-3.49.28-1.04.41-2.15.36-3.29-.23-5.27-4.34-9.74-9.57-10.42-.48-.07-.95-.1-1.42-.1-.18 0-.35 0-.52.01-.12.01-.23.01-.35.01-1.46 0-2.9-.45-4.01-1.39-1.92-1.64-4.4-2.63-7.12-2.63-.81 0-1.59.09-2.35.26-2.69-2.04-6.02-3.26-9.65-3.26z" fill="#424242" opacity=".2"/></svg>